<?xml version="1.0" encoding="UTF-8"?>
<svg width="295px" height="108px" viewBox="0 0 295 108" version="1.1" xmlns="http://www.w3.org/2000/svg" xmlns:xlink="http://www.w3.org/1999/xlink">
    <!-- Generator: Sketch 51.3 (57544) - http://www.bohemiancoding.com/sketch -->
    <title>logo</title>
    <desc>Created with Sketch.</desc>
    <defs></defs>
    <g id="Page-1" stroke="none" stroke-width="1" fill="none" fill-rule="evenodd">
        <rect id="Rectangle" fill="#FFD8F0" fill-rule="nonzero" x="0.334375" y="0.80625" width="294.06471" height="106.25"></rect>
        <path d="M37.5542301,94.88125 C31.4541996,94.88125 26.2042521,93.581263 21.8042301,90.98125 C18.3042126,88.98124 15.5542401,86.381266 13.5542301,83.18125 C11.8542216,80.0812345 11.0042301,76.731268 11.0042301,73.13125 C11.0042301,69.8312335 11.8042221,66.8312635 13.4042301,64.13125 C15.2042391,60.8312335 18.1542096,57.981262 22.2542301,55.58125 C28.6542621,51.981232 36.4541841,50.18125 45.6542301,50.18125 L70.1042301,50.18125 L70.1042301,43.13125 C70.1042301,37.931224 68.9042421,33.1812715 66.5042301,28.88125 C64.1042181,24.88123 60.9042501,21.781261 56.9042301,19.58125 C52.5042081,16.981237 47.4542586,15.68125 41.7542301,15.68125 C35.9542011,15.68125 30.8042526,16.981237 26.3042301,19.58125 C22.5042111,21.781261 19.4042421,24.88123 17.0042301,28.88125 C16.0042251,30.681259 15.2042331,32.58124 14.6042301,34.58125 L11.9042301,33.68125 C12.4042326,31.5812395 13.2542241,29.53126 14.4542301,27.53125 C16.9542426,23.131228 20.3542086,19.731262 24.6542301,17.33125 C29.5542546,14.4312355 35.2541976,12.98125 41.7542301,12.98125 C48.0542616,12.98125 53.7042051,14.381236 58.7042301,17.18125 C63.2042526,19.781263 66.6542181,23.281228 69.0542301,27.68125 C71.7542436,32.1812725 73.1042301,37.331221 73.1042301,43.13125 L73.1042301,93.68125 L70.1042301,93.68125 L70.1042301,73.58125 C69.5042271,75.181258 68.7542346,76.7312425 67.8542301,78.23125 C64.9542156,83.3312755 60.9542556,87.3312355 55.8542301,90.23125 C50.4542031,93.3312655 44.3542641,94.88125 37.5542301,94.88125 Z M37.8542301,92.18125 C44.1542616,92.18125 49.8042051,90.7312645 54.8042301,87.83125 C59.5042536,85.1312365 63.1542171,81.481273 65.7542301,76.88125 C68.6542446,71.9812255 70.1042301,66.331282 70.1042301,59.93125 L70.1042301,52.88125 L45.6542301,52.88125 C37.0541871,52.88125 29.8042596,54.5312335 23.9042301,57.83125 C20.4042126,59.9312605 17.7542391,62.481235 15.9542301,65.48125 C14.6542236,67.7812615 14.0042301,70.331236 14.0042301,73.13125 C14.0042301,76.2312655 14.7542226,79.081237 16.2542301,81.68125 C17.9542386,84.5812645 20.3542146,86.931241 23.4542301,88.73125 C27.4542501,91.0312615 32.2542021,92.18125 37.8542301,92.18125 Z M116.72923,94.88125 C111.829205,94.88125 107.429249,93.7312615 103.52923,91.43125 C98.929207,88.831237 95.229244,85.031275 92.42923,80.03125 C88.5292105,73.3312165 86.57923,65.381296 86.57923,56.18125 L86.57923,14.18125 L89.57923,14.18125 L89.57923,56.18125 C89.57923,64.8812935 91.379212,72.331219 94.97923,78.53125 C97.6792435,83.2312735 101.079209,86.7312385 105.17923,89.03125 C108.679247,91.1312605 112.629208,92.18125 117.02923,92.18125 C121.429252,92.18125 125.379212,91.1312605 128.87923,89.03125 C132.97925,86.7312385 136.379216,83.2312735 139.07923,78.53125 C142.679248,72.331219 144.47923,64.8812935 144.47923,56.18125 L144.47923,14.18125 L147.47923,14.18125 L147.47923,93.68125 L144.47923,93.68125 L144.47923,72.38125 C143.579225,75.0812635 142.429237,77.631238 141.02923,80.03125 C138.229216,85.031275 134.529253,88.831237 129.92923,91.43125 C126.02921,93.7312615 121.629254,94.88125 116.72923,94.88125 Z M163.70423,93.68125 L163.70423,14.18125 L166.70423,14.18125 L166.70423,35.78125 C167.604234,32.781235 168.804222,29.9312635 170.30423,27.23125 C173.204244,22.3312255 176.804208,18.681262 181.10423,16.28125 C184.804248,14.081239 188.904207,12.98125 193.40423,12.98125 C198.904257,12.98125 203.854208,14.2312375 208.25423,16.73125 C211.854248,18.8312605 214.60422,21.581233 216.50423,24.98125 C217.004232,25.781254 217.454228,26.681245 217.85423,27.68125 L215.00423,28.88125 C214.704228,28.081246 214.304232,27.2312545 213.80423,26.33125 C212.004221,23.331235 209.554245,20.8812595 206.45423,18.98125 C202.55421,16.781239 198.204254,15.68125 193.40423,15.68125 C189.304209,15.68125 185.504247,16.68124 182.00423,18.68125 C178.10421,20.9812615 174.804243,24.3812275 172.10423,28.88125 C168.504212,35.1812815 166.70423,42.731206 166.70423,51.53125 L166.70423,93.68125 L163.70423,93.68125 Z M248.17923,94.88125 C242.079199,94.88125 236.829252,93.581263 232.42923,90.98125 C228.929212,88.98124 226.17924,86.381266 224.17923,83.18125 C222.479221,80.0812345 221.62923,76.731268 221.62923,73.13125 C221.62923,69.8312335 222.429222,66.8312635 224.02923,64.13125 C225.829239,60.8312335 228.779209,57.981262 232.87923,55.58125 C239.279262,51.981232 247.079184,50.18125 256.27923,50.18125 L280.72923,50.18125 L280.72923,43.13125 C280.72923,37.931224 279.529242,33.1812715 277.12923,28.88125 C274.729218,24.88123 271.52925,21.781261 267.52923,19.58125 C263.129208,16.981237 258.079258,15.68125 252.37923,15.68125 C246.579201,15.68125 241.429252,16.981237 236.92923,19.58125 C233.129211,21.781261 230.029242,24.88123 227.62923,28.88125 C226.629225,30.681259 225.829233,32.58124 225.22923,34.58125 L222.52923,33.68125 C223.029232,31.5812395 223.879224,29.53126 225.07923,27.53125 C227.579242,23.131228 230.979208,19.731262 235.27923,17.33125 C240.179254,14.4312355 245.879197,12.98125 252.37923,12.98125 C258.679261,12.98125 264.329205,14.381236 269.32923,17.18125 C273.829252,19.781263 277.279218,23.281228 279.67923,27.68125 C282.379243,32.1812725 283.72923,37.331221 283.72923,43.13125 L283.72923,93.68125 L280.72923,93.68125 L280.72923,73.58125 C280.129227,75.181258 279.379234,76.7312425 278.47923,78.23125 C275.579215,83.3312755 271.579255,87.3312355 266.47923,90.23125 C261.079203,93.3312655 254.979264,94.88125 248.17923,94.88125 Z M248.47923,92.18125 C254.779261,92.18125 260.429205,90.7312645 265.42923,87.83125 C270.129253,85.1312365 273.779217,81.481273 276.37923,76.88125 C279.279244,71.9812255 280.72923,66.331282 280.72923,59.93125 L280.72923,52.88125 L256.27923,52.88125 C247.679187,52.88125 240.429259,54.5312335 234.52923,57.83125 C231.029212,59.9312605 228.379239,62.481235 226.57923,65.48125 C225.279223,67.7812615 224.62923,70.331236 224.62923,73.13125 C224.62923,76.2312655 225.379222,79.081237 226.87923,81.68125 C228.579238,84.5812645 230.979214,86.931241 234.07923,88.73125 C238.07925,91.0312615 242.879202,92.18125 248.47923,92.18125 Z" id="aura" fill="#E4008D"></path>
    </g>
</svg>